<svg width="311.33999023437497px" height="130.439990234375px" xmlns="http://www.w3.org/2000/svg" viewBox="94.33000488281252 9.780004882812506 311.33999023437497 130.439990234375" style="background: rgb(38, 35, 35);" preserveAspectRatio="xMidYMid"><defs><filter id="editing-hover" x="-100%" y="-100%" width="300%" height="300%"><feFlood flood-color="#a24124" result="flood"></feFlood><feComposite operator="in" in2="SourceAlpha" in="flood" result="shadow"></feComposite><feOffset dx="0.8" dy="26.2" in="SourceGraphic" result="offset-1"></feOffset><feOffset dx="-0.8" dy="-26.2" in="shadow" result="offset-2"></feOffset><feMerge><feMergeNode in="offset-2"></feMergeNode><feMergeNode in="offset-1"></feMergeNode></feMerge></filter></defs><g filter="url(#editing-hover)"><g transform="translate(151.2188196182251, 106.73999977111816)"><path d="M48.26-34.30L48.26-34.30L48.26-34.30Q48.26-29.95 44.80-22.85L44.80-22.85L44.80-22.85Q41.34-15.74 35.26-7.90L35.26-7.90L35.26-7.90Q29.18-0.06 21.31 7.10L21.31 7.10L21.31 7.10Q6.59 20.54-3.58 20.54L-3.58 20.54L-3.58 20.54Q-8.70 20.54-10.62 16.38L-10.62 16.38L-10.62 16.38Q-11.14 15.10-11.14 13.70L-11.14 13.70L-11.14 13.70Q-11.14 9.15-8 4.22L-8 4.22L-8 4.22Q-1.98-5.06 9.60-11.71L9.60-11.71L9.60-11.71Q10.69-20.10 17.25-28.54L17.25-28.54L17.25-28.54Q23.81-36.99 31.87-41.09L31.87-41.09L31.87-41.09Q35.52-42.94 38.98-42.94L38.98-42.94L38.98-42.94Q42.43-42.94 44.99-41.09L44.99-41.09L44.99-41.09Q48.26-38.66 48.26-34.30ZM14.40-3.26L14.40-3.26L14.40-3.26Q12.03-3.26 10.69-4.86L10.69-4.86L10.69-4.86Q-4.35 5.38-6.46 12.54L-6.46 12.54L-6.46 12.54Q-6.72 13.57-6.72 14.46L-6.72 14.46L-6.72 14.46Q-6.72 16.83-3.84 17.79L-3.84 17.79L-3.84 17.79Q-2.75 18.11-1.73 18.11L-1.73 18.11L-1.73 18.11Q1.54 18.11 4.67 16.77L4.67 16.77L4.67 16.77Q12.86 13.38 22.53 3.62L22.53 3.62L22.53 3.62Q32.19-6.14 38.18-16.42L38.18-16.42L38.18-16.42Q44.16-26.69 44.16-32.64L44.16-32.64L44.16-32.64Q44.16-37.57 41.02-39.17L41.02-39.17L41.02-39.17Q39.81-39.81 37.82-39.81L37.82-39.81L37.82-39.81Q35.84-39.81 32.90-38.91L32.90-38.91L32.90-38.91Q24.32-35.97 18.82-28.99L18.82-28.99L18.82-28.99Q13.31-22.02 12.16-13.06L12.16-13.06L12.16-13.06Q18.69-16.26 24.38-16.26L24.38-16.26L24.38-16.26Q29.76-16.26 30.46-13.31L30.46-13.31L30.46-13.31Q30.66-12.61 30.59-12.48L30.59-12.48L30.59-12.48Q30.53-12.35 30.21-12.48L30.21-12.48L30.21-12.48Q29.70-12.74 28.48-12.74L28.48-12.74L28.48-12.74Q22.91-12.74 12.35-5.95L12.35-5.95L12.35-5.95Q13.12-4.10 14.59-3.97L14.59-3.97L14.59-3.97Q15.04-3.90 15.04-3.58L15.04-3.58L15.04-3.58Q15.04-3.26 14.40-3.26ZM58.11-9.98L58.11-9.98L58.11-9.98Q61.50-11.84 61.50-13.76L61.50-13.76L61.50-13.76Q61.50-15.68 59.20-15.68L59.20-15.68L59.20-15.68Q58.11-15.68 56.90-15.10L56.90-15.10L56.90-15.10Q54.21-13.89 51.71-10.88L51.71-10.88L51.71-10.88Q48.64-7.17 48.64-3.97L48.64-3.97L48.64-3.97Q48.64-2.75 49.31-1.70L49.31-1.70L49.31-1.70Q49.98-0.64 51.71-0.64L51.71-0.64L51.71-0.64Q54.72-0.64 59.33-3.81L59.33-3.81L59.33-3.81Q63.94-6.98 67.26-10.18L67.26-10.18L67.26-10.18Q68.03-10.94 68.03-10.24L68.03-10.24L68.03-10.24Q68.03-9.79 67.65-9.47L67.65-9.47L67.65-9.47Q65.28-7.30 64.48-6.56L64.48-6.56L64.48-6.56Q63.68-5.82 61.31-3.94L61.31-3.94L61.31-3.94Q58.94-2.05 57.47-1.28L57.47-1.28L57.47-1.28Q52.93 1.09 49.76 1.09L49.76 1.09L49.76 1.09Q46.59 1.09 44.77-0.35L44.77-0.35L44.77-0.35Q42.94-1.79 42.94-4.35L42.94-4.35L42.94-4.35Q42.94-9.79 47.81-13.73L47.81-13.73L47.81-13.73Q52.67-17.66 57.98-17.66L57.98-17.66L57.98-17.66Q61.57-17.66 62.78-16.13L62.78-16.13L62.78-16.13Q63.30-15.36 63.30-14.50L63.30-14.50L63.30-14.50Q63.30-13.63 62.72-12.61L62.72-12.61L62.72-12.61Q61.57-10.62 58.40-9.12L58.40-9.12L58.40-9.12Q55.23-7.62 52.42-7.62L52.42-7.62L52.42-7.62Q51.33-7.62 51.23-7.81L51.23-7.81L51.23-7.81Q51.14-8 51.39-8.10L51.39-8.10L51.39-8.10Q51.65-8.19 52.10-8.19L52.10-8.19L52.10-8.19Q54.66-8.19 58.11-9.98ZM61.38-3.52L61.38-3.52L61.38-3.52Q61.31-3.58 61.31-3.71L61.31-3.71L61.31-3.71Q61.31-3.84 61.54-3.84L61.54-3.84L61.54-3.84Q61.76-3.84 61.82-3.58L61.82-3.58L61.82-3.58Q62.98-1.02 65.60-1.02L65.60-1.02L65.60-1.02Q68.86-1.02 71.30-4.22L71.30-4.22L71.30-4.22Q73.09-6.59 74.46-9.18L74.46-9.18L74.46-9.18Q75.84-11.78 76.77-13.31L76.77-13.31L76.77-13.31Q77.70-14.85 79.65-16.77L79.65-16.77L79.65-16.77Q81.60-18.69 83.20-19.14L83.20-19.14L83.20-19.14Q82.82-19.33 81.92-19.33L81.92-19.33L81.92-19.33Q81.02-19.33 78.56-18.02L78.56-18.02L78.56-18.02Q76.10-16.70 73.66-14.69L73.66-14.69L73.66-14.69Q71.23-12.67 68.42-10.11L68.42-10.11L68.42-10.11Q65.60-7.55 65.02-7.10L65.02-7.10L65.02-7.10Q64.45-6.66 64.32-7.10L64.32-7.10L64.32-7.10Q64.19-7.55 64.64-7.94L64.64-7.94L64.64-7.94Q66.30-9.34 69.44-12.32L69.44-12.32L69.44-12.32Q72.58-15.30 74.21-16.67L74.21-16.67L74.21-16.67Q75.84-18.05 77.89-19.04L77.89-19.04L77.89-19.04Q79.94-20.03 80.96-20.03L80.96-20.03L80.96-20.03Q83.52-20.03 84.10-19.14L84.10-19.14L84.10-19.14Q82.43-18.43 81.38-15.42L81.38-15.42L81.38-15.42Q80.32-12.42 79.01-8.45L79.01-8.45L79.01-8.45Q77.70-4.48 75.71-2.24L75.71-2.24L75.71-2.24Q77.38-2.88 80.86-5.22L80.86-5.22L80.86-5.22Q84.35-7.55 87.04-10.30L87.04-10.30L87.04-10.30Q87.62-10.82 87.87-10.43L87.87-10.43L87.87-10.43Q87.87-10.30 87.87-10.14L87.87-10.14L87.87-10.14Q87.87-9.98 86.66-8.77L86.66-8.77L86.66-8.77Q85.44-7.55 83.68-6.05L83.68-6.05L83.68-6.05Q81.92-4.54 79.30-2.69L79.30-2.69L79.30-2.69Q73.86 1.15 68.38 1.15L68.38 1.15L68.38 1.15Q62.91 1.15 61.38-3.52ZM99.07-9.86L99.07-9.86L99.07-9.86Q98.43-8.90 97.34-7.42L97.34-7.42L97.34-7.42Q96.26-5.95 95.30-4.61L95.30-4.61L95.30-4.61Q94.34-3.26 94.34-2.59L94.34-2.59L94.34-2.59Q94.34-1.92 94.98-1.92L94.98-1.92L94.98-1.92Q96.13-1.92 98.37-3.97L98.37-3.97L100.42-5.95L100.42-5.95Q103.55-9.34 105.92-12.48L105.92-12.48L108.29-15.36L108.29-15.36Q109.38-16.58 110.59-16.64L110.59-16.64L110.59-16.64Q112.45-16.64 114.05-15.23L114.05-15.23L114.05-15.23Q113.66-14.66 112.80-13.57L112.80-13.57L112.80-13.57Q111.94-12.48 111.07-11.36L111.07-11.36L111.07-11.36Q110.21-10.24 109.09-8.77L109.09-8.77L109.09-8.77Q107.97-7.30 107.14-6.02L107.14-6.02L107.14-6.02Q106.30-4.74 105.44-3.30L105.44-3.30L105.44-3.30Q104.58-1.86 104.19-0.83L104.19-0.83L104.19-0.83Q103.23 1.98 104.26 2.69L104.26 2.69L104.26 2.69Q104.58 3.01 104.13 3.01L104.13 3.01L104.13 3.01Q104 3.01 103.87 2.94L103.87 2.94L103.87 2.94Q101.44 2.11 101.44-1.02L101.44-1.02L101.44-1.02Q101.44-4.16 103.49-8.45L103.49-8.45L103.49-8.45Q96.64 0.38 92.35 0.38L92.35 0.38L92.35 0.38Q89.09 0.38 89.09-2.69L89.09-2.69L89.09-2.69Q89.09-3.78 89.54-5.25L89.54-5.25L89.54-5.25Q90.50-8.13 96.06-14.34L96.06-14.34L96.06-14.34Q96.77-15.17 96.77-15.74L96.77-15.74L96.77-15.74Q96.77-16.32 96-16.32L96-16.32L96-16.32Q95.23-16.32 93.70-15.17L93.70-15.17L93.70-15.17Q92.16-14.02 89.41-11.42L89.41-11.42L89.41-11.42Q86.66-8.83 86.05-8.32L86.05-8.32L86.05-8.32Q85.44-7.81 85.44-8.58L85.44-8.58L85.44-8.58Q85.44-8.96 86.66-9.95L86.66-9.95L86.66-9.95Q87.87-10.94 89.98-13.15L89.98-13.15L89.98-13.15Q92.10-15.36 93.66-16.54L93.66-16.54L93.66-16.54Q95.23-17.73 97.28-17.73L97.28-17.73L97.28-17.73Q99.58-17.73 100.42-16L100.42-16L100.42-16Q100.74-15.36 100.74-14.34L100.74-14.34L100.74-14.34Q100.74-13.31 100.22-12.06L100.22-12.06L100.22-12.06Q99.71-10.82 99.07-9.86ZM110.34-3.52L110.34-3.52L110.34-3.52Q110.27-3.58 110.27-3.71L110.27-3.71L110.27-3.71Q110.27-3.84 110.50-3.84L110.50-3.84L110.50-3.84Q110.72-3.84 110.78-3.58L110.78-3.58L110.78-3.58Q111.94-1.02 114.56-1.02L114.56-1.02L114.56-1.02Q117.82-1.02 120.26-4.22L120.26-4.22L120.26-4.22Q122.05-6.59 123.42-9.18L123.42-9.18L123.42-9.18Q124.80-11.78 125.73-13.31L125.73-13.31L125.73-13.31Q126.66-14.85 128.61-16.77L128.61-16.77L128.61-16.77Q130.56-18.69 132.16-19.14L132.16-19.14L132.16-19.14Q131.78-19.33 130.88-19.33L130.88-19.33L130.88-19.33Q129.98-19.33 127.52-18.02L127.52-18.02L127.52-18.02Q125.06-16.70 122.62-14.69L122.62-14.69L122.62-14.69Q120.19-12.67 117.38-10.11L117.38-10.11L117.38-10.11Q114.56-7.55 113.98-7.10L113.98-7.10L113.98-7.10Q113.41-6.66 113.28-7.10L113.28-7.10L113.28-7.10Q113.15-7.55 113.60-7.94L113.60-7.94L113.60-7.94Q115.26-9.34 118.40-12.32L118.40-12.32L118.40-12.32Q121.54-15.30 123.17-16.67L123.17-16.67L123.17-16.67Q124.80-18.05 126.85-19.04L126.85-19.04L126.85-19.04Q128.90-20.03 129.92-20.03L129.92-20.03L129.92-20.03Q132.48-20.03 133.06-19.14L133.06-19.14L133.06-19.14Q131.39-18.43 130.34-15.42L130.34-15.42L130.34-15.42Q129.28-12.42 127.97-8.45L127.97-8.45L127.97-8.45Q126.66-4.48 124.67-2.24L124.67-2.24L124.67-2.24Q126.34-2.88 129.82-5.22L129.82-5.22L129.82-5.22Q133.31-7.55 136-10.30L136-10.30L136-10.30Q136.58-10.82 136.83-10.43L136.83-10.43L136.83-10.43Q136.83-10.30 136.83-10.14L136.83-10.14L136.83-10.14Q136.83-9.98 135.62-8.77L135.62-8.77L135.62-8.77Q134.40-7.55 132.64-6.05L132.64-6.05L132.64-6.05Q130.88-4.54 128.26-2.69L128.26-2.69L128.26-2.69Q122.82 1.15 117.34 1.15L117.34 1.15L117.34 1.15Q111.87 1.15 110.34-3.52ZM149.82 2.37L149.82 2.37L149.82 2.37Q149.82-0.70 159.04-14.14L159.04-14.14L159.04-14.14Q158.72-15.30 158.72-16.26L158.72-16.26L158.72-16.26Q158.72-17.22 160.32-18.50L160.32-18.50L160.32-18.50Q161.92-19.78 162.75-19.78L162.75-19.78L162.75-19.78Q162.88-19.78 162.94-19.78L162.94-19.78L162.94-19.78Q166.72-24.96 169.66-28.54L169.66-28.54L169.66-28.54Q172.61-32.13 173.12-32.13L173.12-32.13L173.12-32.13Q173.63-32.13 173.92-31.71L173.92-31.71L173.92-31.71Q174.21-31.30 174.21-30.85L174.21-30.85L174.21-30.85Q169.09-24.51 163.71-17.15L163.71-17.15L163.84-16.70L166.14-16.90L166.14-16.90Q171.01-17.22 176.70-19.10L176.70-19.10L176.70-19.10Q182.40-20.99 186.05-23.42L186.05-23.42L186.05-23.42Q193.60-28.54 193.60-32.83L193.60-32.83L193.60-32.83Q193.60-34.69 191.10-35.97L191.10-35.97L191.10-35.97Q188.61-37.25 183.30-37.25L183.30-37.25L183.30-37.25Q177.98-37.25 168.86-34.66L168.86-34.66L168.86-34.66Q159.74-32.06 156.16-28.99L156.16-28.99L156.16-28.99Q155.14-28.10 155.42-27.58L155.42-27.58L155.42-27.58Q155.71-27.07 155.52-27.01L155.52-27.01L155.52-27.01Q155.33-26.94 154.94-27.20L154.94-27.20L154.94-27.20Q153.60-27.97 153.25-29.12L153.25-29.12L153.25-29.12Q152.90-30.27 152.90-30.85L152.90-30.85L152.90-30.85Q152.90-31.42 153.22-31.68L153.22-31.68L153.22-31.68Q155.33-34.75 162.66-37.47L162.66-37.47L162.66-37.47Q169.98-40.19 176.19-41.06L176.19-41.06L176.19-41.06Q182.40-41.92 185.38-41.92L185.38-41.92L185.38-41.92Q188.35-41.92 190.30-41.54L190.30-41.54L190.30-41.54Q192.26-41.15 193.79-39.81L193.79-39.81L193.79-39.81Q196.16-37.82 196.16-34.24L196.16-34.24L196.16-34.24Q196.16-30.72 193.54-27.71L193.54-27.71L193.54-27.71Q190.91-24.70 186.78-22.30L186.78-22.30L186.78-22.30Q182.66-19.90 176.77-17.98L176.77-17.98L176.77-17.98Q169.92-15.74 164.16-15.74L164.16-15.74L164.16-15.74Q166.21-10.62 172.38-5.41L172.38-5.41L172.38-5.41Q178.56-0.19 182.59-0.19L182.59-0.19L182.59-0.19Q184.19-0.19 185.41-0.96L185.41-0.96L185.41-0.96Q186.62-1.73 186.82-2.88L186.82-2.88L186.82-2.88Q186.82-3.20 187.14-3.07L187.14-3.07L187.14-3.07Q187.26-2.88 187.26-2.75L187.26-2.75L187.26-2.75Q186.75 1.54 179.97 1.54L179.97 1.54L179.97 1.54Q176.06 1.54 171.84-0.51L171.84-0.51L171.84-0.51Q167.62-2.56 164.64-5.63L164.64-5.63L164.64-5.63Q161.66-8.70 159.94-11.97L159.94-11.97L159.94-11.97Q153.15-2.11 151.55 1.92L151.55 1.92L151.55 1.92Q151.17 2.94 150.50 2.94L150.50 2.94L150.50 2.94Q149.82 2.94 149.82 2.37ZM193.34 0.45L193.34 0.45L193.34 0.45Q192.58 0.45 191.97-0.06L191.97-0.06L191.97-0.06Q191.36-0.58 191.36-1.15L191.36-1.15L191.36-1.15Q191.36-3.07 192.45-4.22L192.45-4.22L192.45-4.22Q193.98-5.82 195.65-5.82L195.65-5.82L195.65-5.82Q196.35-5.82 196.96-5.34L196.96-5.34L196.96-5.34Q197.57-4.86 197.57-3.62L197.57-3.62L197.57-3.62Q197.57-2.37 196.26-0.96L196.26-0.96L196.26-0.96Q194.94 0.45 193.34 0.45Z" fill="#fefefe"></path></g></g><style>text {
  font-size: 64px;
  font-family: Arial Black;
  dominant-baseline: central;
  text-anchor: middle;
}</style></svg>